<svg aria-hidden="true" focusable="false" role="img" xmlns="http://www.w3.org/2000/svg" viewBox="0 0 448 512">
	<defs>
		<linearGradient x1="50%" x2="50%" y1="97.0782153%" y2="0%" id="jsc_s_2">
			<stop offset="0%" stop-color="#0062E0"></stop>
			<stop offset="100%" stop-color="#19AFFF"></stop>
		</linearGradient>
	</defs>
	<path fill="url(#jsc_s_2)" d="M400 32H48A48 48 0 0 0 0 80v352a48 48 0 0 0 48 48h137.25V327.69h-63V256h63v-54.64c0-62.15 37-96.48 93.67-96.48 27.14 0 55.52 4.84 55.52 4.84v61h-31.27c-30.81 0-40.42 19.12-40.42 38.73V256h68.78l-11 71.69h-57.78V480H400a48 48 0 0 0 48-48V80a48 48 0 0 0-48-48z" class=""></path>
</svg>

